# xmcd
#
# Track frame offsets:
#	150
#	14306
#	28925
#	49491
#	67170
#	82290
#	99475
#	113281
#	128863
#	146575
#	171882
#
# Disc length: 2481 seconds
#
# Revision: 0
# Processed by: cddbd v1.5.2PL0 Copyright (c) Steve Scherf et al.
# Submitted via: EasyCDDAExtractor 2011.3.0.0
#
DISCID=9c09af0b
DTITLE=Casey Donahew Band - Standoff
DYEAR=2013
DGENRE=Country
TTITLE0=Lovin Out Of Control
TTITLE1=Whiskey Baby
TTITLE2=Pretending She's You
TTITLE3=Not Ready To Say Goodnight
TTITLE4=Small Town Love
TTITLE5=Sorry
TTITLE6=Homecoming Queen
TTITLE7=Missing You
TTITLE8=Loser
TTITLE9=Put The Bottle Down
TTITLE10=Go To Hell
EXTD=
EXTT0=
EXTT1=
EXTT2=
EXTT3=
EXTT4=
EXTT5=
EXTT6=
EXTT7=
EXTT8=
EXTT9=
EXTT10=
PLAYORDER=
